# xmcd CD database file generated by OrangeCD 5.2
#
# Track frame offsets:
#	150
#	4645
#	18270
#	19362
#	32665
#	36837
#	46545
#	52395
#	56737
#	59332
#	62857
#	66907
#	76665
#	81485
#	92317
#	99187
#	115970
#	123722
#	127300
#	135435
#	146332
#	155587
#	160907
#	171840
#	180105
#	192470
#	205085
#	215227
#	228205
#
# Disc length: 3653 seconds
#
# Revision: 1
# Processed by: cddbd v1.5.1PL0 Copyright (c) Steve Scherf et al.
# Submitted via: OrangeCD 5.2
#
DISCID=920e431d
DTITLE=Johnny Cash - Return To The Promised Land
DYEAR=2000
DGENRE=Country
TTITLE0=News Conference
TTITLE1=Return To The Promised Land
TTITLE2=Opening Dialogue
TTITLE3=Johnny Cash and June Carter Cash - When I Look
TTITLE4=Dialogue
TTITLE5=Over The Next Hill We'll Be Home
TTITLE6=Tour Guides - Dialogue
TTITLE7=Johnny Cash, June Carter Cash and John Carter Cash - Old Rugged Cross
TTITLE8=Interlude and Monologue
TTITLE9=I Won't Have To Cross Jordan Alone
TTITLE10=Johnny Cash and June Carter Cash - Dialogue
TTITLE11=Johnny Cash and June Carter Cash - Far Side Banks Of Jordan
TTITLE12=Monologue
TTITLE13=Johnny Cash, June Carter Cash and John Carter Cash - Let Me Help You Car
TTITLE13=ry This Weight
TTITLE14=Johnny Cash and June Carter Cash - Dialogue
TTITLE15=John Carter Cash - Lord Take These Hands
TTITLE16=June Carter Cash - Monologue
TTITLE17=Johnny Cash, June Carter Cash and John Carter Cash - Fishers Of Men
TTITLE18=Johnny Cash and June Carter Cash - Dialogue
TTITLE19=June Carter Cash - The Old Gospel Ship
TTITLE20=What On Earth Will You Do For Heaven's Sake
TTITLE21=Interlude and Closing Monologue
TTITLE22=God's Hands
TTITLE23=Instrumental - Return To The Promised Land
TTITLE24=Hello Out There
TTITLE25=Like A Soldier (Getting Over The War)
TTITLE26=Poor Valley Girl
TTITLE27=Soldier Boy
TTITLE28=Dialogue (mother Of Johnny Cash)
EXTD=YEAR: 2000 ID3G: 2
EXTT0=
EXTT1=
EXTT2=
EXTT3=
EXTT4=
EXTT5=
EXTT6=
EXTT7=
EXTT8=
EXTT9=
EXTT10=
EXTT11=
EXTT12=
EXTT13=
EXTT14=
EXTT15=
EXTT16=
EXTT17=
EXTT18=
EXTT19=
EXTT20=
EXTT21=
EXTT22=
EXTT23=
EXTT24=
EXTT25=
EXTT26=
EXTT27=
EXTT28=
PLAYORDER=
